<?xml version="1.0" standalone="no"?>
<!DOCTYPE svg PUBLIC "-//W3C//DTD SVG 20010904//EN"
 "http://www.w3.org/TR/2001/REC-SVG-20010904/DTD/svg10.dtd">
<svg version="1.0" xmlns="http://www.w3.org/2000/svg"
 width="780.000000pt" height="780.000000pt" viewBox="0 0 780.000000 780.000000"
 preserveAspectRatio="xMidYMid meet">
<metadata>
Created by potrace 1.11, written by Peter Selinger 2001-2013
</metadata>
<g transform="translate(0.000000,780.000000) scale(0.100000,-0.100000)"
fill="#000000" stroke="none">
<path d="M5355 6491 c-267 -78 -446 -299 -462 -572 -11 -186 52 -353 181 -482
353 -353 953 -178 1062 309 19 89 15 237 -10 317 -66 208 -251 383 -457 432
-86 20 -238 18 -314 -4z"/>
<path d="M3233 6173 c3 -5 -7 -8 -23 -5 -28 4 -102 -16 -165 -44 -16 -7 -190
-72 -385 -144 -195 -72 -368 -137 -385 -145 -16 -7 -76 -29 -132 -50 -111 -40
-154 -73 -184 -140 -48 -104 2 -239 105 -286 82 -37 178 -18 431 86 17 7 51
20 78 30 26 10 47 22 47 27 0 5 4 7 9 4 13 -8 72 14 65 25 -3 5 1 6 9 3 8 -3
129 38 269 90 l255 95 169 -68 c93 -38 186 -76 207 -85 20 -9 37 -13 37 -9 0
5 4 3 8 -3 4 -5 133 -61 287 -122 300 -120 334 -128 410 -96 44 18 110 85 124
125 5 16 9 58 7 93 -2 54 -7 73 -32 107 -16 23 -40 50 -54 61 -29 21 -1078
443 -1129 453 -20 4 -31 3 -28 -2z"/>
<path d="M4155 5954 c-33 -8 -63 -18 -67 -22 -5 -5 64 -37 153 -72 119 -47
172 -74 205 -103 108 -95 130 -241 54 -361 -27 -43 -29 -51 -7 -47 5 1 6 -3 2
-8 -3 -6 -12 -8 -20 -5 -8 3 -29 -5 -47 -19 -41 -31 -117 -57 -167 -57 -53 0
-94 14 -376 128 -137 55 -257 102 -265 104 -8 2 -17 6 -20 9 -8 9 -139 59
-155 59 -25 0 -246 -192 -352 -307 -310 -333 -412 -496 -428 -687 -14 -154 61
-314 211 -456 26 -25 64 -61 83 -81 100 -99 293 -271 298 -265 8 8 34 -14 28
-24 -3 -4 31 -41 76 -80 44 -40 76 -76 72 -80 -4 -4 -55 -24 -113 -43 -58 -20
-150 -52 -205 -71 -55 -19 -203 -70 -330 -114 -126 -44 -265 -92 -307 -107
-110 -38 -181 -79 -227 -132 -44 -49 -85 -144 -78 -180 2 -12 0 -24 -6 -26
-15 -5 8 -121 35 -176 69 -143 248 -222 403 -176 33 9 65 24 73 33 7 10 10 11
6 3 -6 -11 -3 -13 12 -7 10 4 98 34 194 66 96 32 267 90 380 130 113 39 230
80 260 90 175 59 401 140 412 146 7 5 19 9 28 10 31 3 287 97 327 120 57 33
119 106 142 170 29 77 25 210 -9 278 -14 26 -32 53 -41 60 -9 6 -18 16 -20 22
-7 19 -213 204 -228 204 -7 0 -11 6 -8 14 4 10 -57 71 -186 184 -106 93 -218
194 -251 223 l-59 54 79 77 c72 70 165 151 254 220 19 15 61 48 92 73 32 25
61 45 64 45 4 0 39 24 78 54 40 30 128 93 197 140 l124 86 21 -87 c12 -49 40
-169 63 -268 62 -273 71 -302 102 -345 48 -66 57 -69 648 -220 128 -33 243
-62 255 -65 11 -2 130 -34 264 -70 134 -36 261 -65 283 -65 74 0 159 54 195
123 12 23 13 31 3 43 -10 12 -10 15 2 12 19 -4 24 46 9 97 -17 57 -54 108 -98
132 -42 24 -378 117 -392 108 -4 -3 -10 0 -12 6 -2 6 -17 12 -34 13 -17 2 -35
5 -40 8 -5 4 -81 25 -169 48 -88 23 -180 48 -205 55 -58 16 -230 63 -297 82
-49 13 -53 17 -59 51 -5 32 -42 198 -61 272 -3 14 -8 34 -10 45 -2 11 -25 110
-52 220 -27 110 -61 253 -76 318 -22 95 -34 128 -67 178 -66 99 -185 180 -315
213 -76 20 -246 20 -328 0z"/>
<path d="M2415 5039 c-49 -11 -97 -22 -105 -25 -8 -4 -26 -8 -40 -9 -62 -7
-199 -38 -195 -45 3 -5 -3 -6 -13 -3 -14 3 -567 -104 -634 -123 -22 -6 -25
-54 -4 -54 8 0 166 32 353 70 186 39 349 72 363 74 14 3 45 10 70 16 25 6 58
13 73 15 15 2 78 14 138 26 107 21 110 23 107 47 -2 14 -7 26 -13 28 -5 1 -50
-7 -100 -17z"/>
<path d="M1647 4705 c-246 -51 -464 -96 -483 -99 -19 -4 -32 -11 -29 -16 3 -4
-3 -6 -14 -3 -15 4 -526 -94 -593 -113 -19 -6 -25 -39 -9 -49 5 -3 110 15 233
41 198 40 365 75 1158 237 204 42 205 42 208 70 2 17 -1 27 -10 26 -7 0 -215
-43 -461 -94z"/>
<path d="M2075 4619 c-154 -32 -384 -79 -512 -105 -128 -26 -230 -50 -229 -53
2 -3 -16 -7 -40 -7 -53 -2 -57 -4 -49 -36 6 -24 8 -25 58 -16 29 6 59 12 67
15 8 3 25 7 37 9 16 2 760 152 941 190 15 3 22 12 22 29 0 13 -3 26 -7 28 -5
2 -134 -22 -288 -54z"/>
<path d="M2710 4163 c0 -16 -4 -82 -9 -148 -5 -66 -12 -165 -16 -220 -3 -55
-10 -161 -15 -235 -6 -74 -10 -147 -10 -162 l0 -27 88 30 c48 16 96 33 107 38
11 5 122 44 248 87 l227 78 -24 25 c-13 14 -25 31 -27 38 -2 7 -87 91 -188
188 -131 125 -187 172 -193 163 -5 -9 -31 11 -88 72 -44 46 -80 88 -80 92 0 4
-5 8 -10 8 -6 0 -10 -12 -10 -27z m435 -548 c-16 -8 -39 -14 -50 -14 -11 0 -2
6 20 14 52 17 68 17 30 0z"/>
<path d="M5463 2897 c-160 -34 -191 -43 -181 -54 10 -12 7 -12 -14 -2 -21 9
-45 7 -124 -9 -55 -11 -153 -31 -219 -43 -66 -12 -131 -26 -145 -32 -14 -5
-43 -11 -65 -13 -22 -3 -67 -10 -100 -17 -51 -11 -61 -16 -63 -36 -2 -13 0
-27 5 -31 7 -8 116 12 153 27 8 3 20 5 26 4 12 -1 100 17 384 79 102 22 199
42 215 45 27 4 338 67 342 69 4 3 -10 56 -16 55 -3 -1 -93 -19 -198 -42z"/>
<path d="M3080 2651 c-316 -112 -320 -114 -307 -130 10 -14 10 -14 -5 -3 -25
20 -139 -19 -168 -56 -15 -19 -18 -21 -11 -6 10 21 9 22 -77 22 -96 -1 -160
19 -237 72 -24 17 -47 30 -52 29 -4 0 -89 -93 -188 -205 -99 -113 -189 -215
-201 -227 -12 -12 -80 -89 -152 -170 -151 -170 -174 -215 -175 -333 0 -55 6
-83 26 -127 34 -74 97 -140 166 -174 49 -24 68 -28 147 -28 145 0 171 17 381
255 95 107 185 209 201 225 16 17 141 155 277 308 153 172 245 283 241 292 -3
8 0 12 7 9 13 -5 277 271 277 290 0 10 -7 8 -150 -43z"/>
<path d="M4940 2615 c-168 -35 -307 -64 -310 -65 -3 -1 -8 -2 -12 -1 -4 0
-150 -29 -325 -65 -175 -36 -390 -80 -478 -98 -154 -31 -160 -33 -160 -56 0
-24 2 -25 55 -22 30 2 190 32 355 66 222 46 299 66 297 76 -2 10 0 11 11 2 11
-9 32 -9 93 3 43 9 90 21 104 27 14 6 28 11 32 10 8 -2 634 125 654 132 12 4
7 57 -5 55 -3 -1 -143 -30 -311 -64z"/>
<path d="M4995 2454 c-253 -53 -472 -102 -488 -109 -15 -8 -24 -9 -21 -3 4 6
-1 8 -12 5 -11 -3 -36 -9 -57 -13 -36 -6 -38 -9 -32 -33 8 -33 4 -31 50 -21
22 5 263 55 535 110 272 56 505 104 518 107 33 8 26 47 -8 50 -14 1 -232 -41
-485 -93z"/>
</g>
</svg>
